<svg preserveAspectRatio="none" width="100%" height="100%" overflow="visible" style="display: block;" viewBox="0 0 32 32" fill="none" xmlns="http://www.w3.org/2000/svg">
<g id="Frame">
<path id="Vector" d="M13.3333 2.66667V5.33333" stroke="var(--stroke-0, #1F4747)" stroke-width="3" stroke-linecap="round" stroke-linejoin="round"/>
<path id="Vector_2" d="M18.6667 2.66667V5.33333" stroke="var(--stroke-0, #1F4747)" stroke-width="3" stroke-linecap="round" stroke-linejoin="round"/>
<path id="Vector_3" d="M21.3333 10.6667C21.687 10.6667 22.0261 10.8071 22.2761 11.0572C22.5262 11.3072 22.6667 11.6464 22.6667 12V22.6667C22.6667 24.0812 22.1048 25.4377 21.1046 26.4379C20.1044 27.4381 18.7478 28 17.3333 28H9.33333C7.91885 28 6.56229 27.4381 5.5621 26.4379C4.5619 25.4377 4 24.0812 4 22.6667V12C4 11.6464 4.14048 11.3072 4.39052 11.0572C4.64057 10.8071 4.97971 10.6667 5.33333 10.6667H24C25.4145 10.6667 26.771 11.2286 27.7712 12.2288C28.7714 13.229 29.3333 14.5855 29.3333 16C29.3333 17.4145 28.7714 18.771 27.7712 19.7712C26.771 20.7714 25.4145 21.3333 24 21.3333H22.6667" stroke="var(--stroke-0, #1F4747)" stroke-width="3" stroke-linecap="round" stroke-linejoin="round"/>
<path id="Vector_4" d="M8 2.66667V5.33333" stroke="var(--stroke-0, #1F4747)" stroke-width="3" stroke-linecap="round" stroke-linejoin="round"/>
</g>
</svg>
