<svg preserveAspectRatio="none" width="100%" height="100%" overflow="visible" style="display: block;" viewBox="0 0 32 32" fill="none" xmlns="http://www.w3.org/2000/svg">
<g id="Frame">
<path id="Vector" d="M16 2.66667C13.3629 2.66667 10.7851 3.44865 8.5924 4.91374C6.39974 6.37882 4.69077 8.46121 3.68161 10.8976C2.67244 13.3339 2.40839 16.0148 2.92286 18.6012C3.43733 21.1876 4.70721 23.5634 6.57191 25.4281C8.43661 27.2928 10.8124 28.5627 13.3988 29.0771C15.9852 29.5916 18.6661 29.3276 21.1024 28.3184C23.5388 27.3092 25.6212 25.6003 27.0863 23.4076C28.5513 21.2149 29.3333 18.6371 29.3333 16C28.4067 16.2853 27.4198 16.3127 26.4788 16.079C25.5377 15.8454 24.6782 15.3597 23.9926 14.6741C23.307 13.9885 22.8213 13.1289 22.5876 12.1879C22.354 11.2469 22.3813 10.26 22.6667 9.33333C21.74 9.61866 20.7531 9.64599 19.8121 9.41236C18.8711 9.17874 18.0115 8.693 17.3259 8.0074C16.6403 7.3218 16.1546 6.46227 15.921 5.52125C15.6873 4.58023 15.7147 3.59332 16 2.66667Z" stroke="var(--stroke-0, #1F4747)" stroke-width="3" stroke-linecap="round" stroke-linejoin="round"/>
<path id="Vector_2" d="M11.3333 11.3333V11.3467" stroke="var(--stroke-0, #1F4747)" stroke-width="3" stroke-linecap="round" stroke-linejoin="round"/>
<path id="Vector_3" d="M21.3333 20.6667V20.68" stroke="var(--stroke-0, #1F4747)" stroke-width="3" stroke-linecap="round" stroke-linejoin="round"/>
<path id="Vector_4" d="M16 16V16.0133" stroke="var(--stroke-0, #1F4747)" stroke-width="3" stroke-linecap="round" stroke-linejoin="round"/>
<path id="Vector_5" d="M14.6667 22.6667V22.68" stroke="var(--stroke-0, #1F4747)" stroke-width="3" stroke-linecap="round" stroke-linejoin="round"/>
<path id="Vector_6" d="M9.33333 18.6667V18.68" stroke="var(--stroke-0, #1F4747)" stroke-width="3" stroke-linecap="round" stroke-linejoin="round"/>
</g>
</svg>
