<svg preserveAspectRatio="none" width="100%" height="100%" overflow="visible" style="display: block;" viewBox="0 0 32 32" fill="none" xmlns="http://www.w3.org/2000/svg">
<g id="Frame">
<path id="Vector" d="M8 10.6667L10.3333 27.04C10.4239 27.6807 10.7444 28.2667 11.235 28.6886C11.7256 29.1106 12.3529 29.3397 13 29.3333H19.0533C19.7004 29.3397 20.3277 29.1106 20.8183 28.6886C21.309 28.2667 21.6294 27.6807 21.72 27.04L24 10.6667" stroke="var(--stroke-0, #1F4747)" stroke-width="3" stroke-linecap="round" stroke-linejoin="round"/>
<path id="Vector_2" d="M6.66667 10.6667H25.3333" stroke="var(--stroke-0, #1F4747)" stroke-width="3" stroke-linecap="round" stroke-linejoin="round"/>
<path id="Vector_3" d="M9.33333 20C10.389 19.5577 11.5221 19.33 12.6667 19.33C13.8112 19.33 14.9443 19.5577 16 20C17.0557 20.4423 18.1888 20.67 19.3333 20.67C20.4779 20.67 21.611 20.4423 22.6667 20" stroke="var(--stroke-0, #1F4747)" stroke-width="3" stroke-linecap="round" stroke-linejoin="round"/>
<path id="Vector_4" d="M16 10.6667L17.3333 2.66667H20" stroke="var(--stroke-0, #1F4747)" stroke-width="3" stroke-linecap="round" stroke-linejoin="round"/>
</g>
</svg>
